<?xml version="1.0" encoding="iso-8859-1"?>
<!-- Uploaded to: SVG Repo, www.svgrepo.com, Generator: SVG Repo Mixer Tools -->
<svg fill="#000000" height="800px" width="800px" version="1.1" id="Layer_1" xmlns="http://www.w3.org/2000/svg" xmlns:xlink="http://www.w3.org/1999/xlink" 
	 viewBox="0 0 445.928 445.928" xml:space="preserve">
<path d="M173.001,0.001l-8.461,2.386c-46.454,13.1-88.315,41.506-117.871,79.985C16.138,122.12,0,169.686,0,219.926
	c0,60.367,23.508,117.121,66.193,159.806c42.687,42.686,99.439,66.194,159.807,66.194c50.243,0,97.812-16.14,137.561-46.674
	c38.48-29.56,66.886-71.425,79.982-117.883l2.385-8.461L173.001,0.001z M177.586,47.01l221.326,221.31
	c-8.978,1.245-18.065,1.874-27.198,1.874c-108.075,0-196-87.925-196-196C175.714,65.066,176.342,55.984,177.586,47.01z M226,415.926
	c-108.075,0-196-87.925-196-196c0-78.665,47.539-149.371,118.303-179.989c-1.718,11.296-2.589,22.747-2.589,34.257
	c0,60.367,23.508,117.121,66.193,159.806c42.687,42.686,99.439,66.194,159.807,66.194c11.519,0,22.979-0.872,34.283-2.593
	C375.384,368.378,304.674,415.926,226,415.926z"/>
</svg>